<?xml version="1.0" encoding="UTF-8" standalone="no"?>
<!DOCTYPE svg PUBLIC "-//W3C//DTD SVG 1.1//EN"
 "http://www.w3.org/Graphics/SVG/1.1/DTD/svg11.dtd">
<!-- Generated by graphviz version 2.47.0 (20210316.0004)
 -->
<!-- Title: dependencies Pages: 1 -->
<svg width="687pt" height="284pt"
 viewBox="0.00 0.00 687.00 284.00" xmlns="http://www.w3.org/2000/svg" xmlns:xlink="http://www.w3.org/1999/xlink">
<g id="graph0" class="graph" transform="scale(1 1) rotate(0) translate(4 280)">
<title>dependencies</title>
<polygon fill="white" stroke="transparent" points="-4,4 -4,-280 683,-280 683,4 -4,4"/>
<text text-anchor="start" x="318.51" y="-42.4" font-family="Times-12" font-weight="bold" font-size="14.00">Legend</text>
<polygon fill="#ffffb3" stroke="transparent" points="105.5,-10 105.5,-30 125.5,-30 125.5,-10 105.5,-10"/>
<text text-anchor="start" x="129.13" y="-15.4" font-family="Times-12" font-size="14.00"> &#160;Declarations</text>
<polygon fill="#8dd3c7" stroke="transparent" points="218.5,-10 218.5,-30 238.5,-30 238.5,-10 218.5,-10"/>
<text text-anchor="start" x="242.23" y="-15.4" font-family="Times-12" font-size="14.00"> &#160;Module</text>
<polygon fill="#80b1d3" stroke="transparent" points="304.5,-10 304.5,-30 324.5,-30 324.5,-10 304.5,-10"/>
<text text-anchor="start" x="328.28" y="-15.4" font-family="Times-12" font-size="14.00"> &#160;Bootstrap</text>
<polygon fill="#fdb462" stroke="transparent" points="401.5,-10 401.5,-30 421.5,-30 421.5,-10 401.5,-10"/>
<text text-anchor="start" x="425.17" y="-15.4" font-family="Times-12" font-size="14.00"> &#160;Providers</text>
<polygon fill="#fb8072" stroke="transparent" points="497.5,-10 497.5,-30 517.5,-30 517.5,-10 497.5,-10"/>
<text text-anchor="start" x="521.23" y="-15.4" font-family="Times-12" font-size="14.00"> &#160;Exports</text>
<g id="clust1" class="cluster">
<title>cluster_AuthModule</title>
<polygon fill="none" stroke="black" stroke-dasharray="1,5" points="8,-70 8,-268 671,-268 671,-70 8,-70"/>
</g>
<g id="clust6" class="cluster">
<title>cluster_AuthModule_providers</title>
<polygon fill="none" stroke="black" points="320,-78 320,-130 663,-130 663,-78 320,-78"/>
</g>
<g id="clust3" class="cluster">
<title>cluster_AuthModule_imports</title>
<polygon fill="none" stroke="black" points="16,-78 16,-130 312,-130 312,-78 16,-78"/>
</g>
<g id="clust4" class="cluster">
<title>cluster_AuthModule_exports</title>
<polygon fill="none" stroke="black" points="268,-208 268,-260 374,-260 374,-208 268,-208"/>
</g>
<!-- PhoneConfirmationModule -->
<g id="node1" class="node">
<title>PhoneConfirmationModule</title>
<polygon fill="#8dd3c7" stroke="black" points="303.98,-122 300.98,-126 279.98,-126 276.98,-122 134.02,-122 134.02,-86 303.98,-86 303.98,-122"/>
<text text-anchor="middle" x="219" y="-99.8" font-family="Times,serif" font-size="14.00">PhoneConfirmationModule</text>
</g>
<!-- AuthModule -->
<g id="node3" class="node">
<title>AuthModule</title>
<polygon fill="#8dd3c7" stroke="black" points="364.55,-187 361.55,-191 340.55,-191 337.55,-187 277.45,-187 277.45,-151 364.55,-151 364.55,-187"/>
<text text-anchor="middle" x="321" y="-164.8" font-family="Times,serif" font-size="14.00">AuthModule</text>
</g>
<!-- PhoneConfirmationModule&#45;&gt;AuthModule -->
<g id="edge1" class="edge">
<title>PhoneConfirmationModule&#45;&gt;AuthModule</title>
<path fill="none" stroke="black" d="M290.61,-122.11C290.61,-122.11 290.61,-140.99 290.61,-140.99"/>
<polygon fill="black" stroke="black" points="287.11,-140.99 290.61,-150.99 294.11,-140.99 287.11,-140.99"/>
</g>
<!-- UsersModule -->
<g id="node2" class="node">
<title>UsersModule</title>
<polygon fill="#8dd3c7" stroke="black" points="115.92,-122 112.92,-126 91.92,-126 88.92,-122 24.08,-122 24.08,-86 115.92,-86 115.92,-122"/>
<text text-anchor="middle" x="70" y="-99.8" font-family="Times,serif" font-size="14.00">UsersModule</text>
</g>
<!-- UsersModule&#45;&gt;AuthModule -->
<g id="edge2" class="edge">
<title>UsersModule&#45;&gt;AuthModule</title>
<path fill="none" stroke="black" d="M70,-122.11C70,-141.34 70,-169 70,-169 70,-169 267.28,-169 267.28,-169"/>
<polygon fill="black" stroke="black" points="267.28,-172.5 277.28,-169 267.28,-165.5 267.28,-172.5"/>
</g>
<!-- AuthService  -->
<g id="node4" class="node">
<title>AuthService </title>
<polygon fill="#fb8072" stroke="black" points="365.98,-252 276.02,-252 276.02,-216 365.98,-216 365.98,-252"/>
<text text-anchor="middle" x="321" y="-229.8" font-family="Times,serif" font-size="14.00">AuthService </text>
</g>
<!-- AuthModule&#45;&gt;AuthService  -->
<g id="edge3" class="edge">
<title>AuthModule&#45;&gt;AuthService </title>
<path fill="none" stroke="black" stroke-dasharray="5,2" d="M321,-187.11C321,-187.11 321,-205.99 321,-205.99"/>
<polygon fill="black" stroke="black" points="317.5,-205.99 321,-215.99 324.5,-205.99 317.5,-205.99"/>
</g>
<!-- AuthService -->
<g id="node5" class="node">
<title>AuthService</title>
<ellipse fill="#fdb462" stroke="black" cx="596" cy="-104" rx="59.11" ry="18"/>
<text text-anchor="middle" x="596" y="-99.8" font-family="Times,serif" font-size="14.00">AuthService</text>
</g>
<!-- AuthService&#45;&gt;AuthModule -->
<g id="edge4" class="edge">
<title>AuthService&#45;&gt;AuthModule</title>
<path fill="none" stroke="black" d="M596,-122.11C596,-141.34 596,-169 596,-169 596,-169 374.57,-169 374.57,-169"/>
<polygon fill="black" stroke="black" points="374.57,-165.5 364.57,-169 374.57,-172.5 374.57,-165.5"/>
</g>
<!-- GoogleOauthStrategy -->
<g id="node6" class="node">
<title>GoogleOauthStrategy</title>
<ellipse fill="#fdb462" stroke="black" cx="423" cy="-104" rx="95.49" ry="18"/>
<text text-anchor="middle" x="423" y="-99.8" font-family="Times,serif" font-size="14.00">GoogleOauthStrategy</text>
</g>
<!-- GoogleOauthStrategy&#45;&gt;AuthModule -->
<g id="edge5" class="edge">
<title>GoogleOauthStrategy&#45;&gt;AuthModule</title>
<path fill="none" stroke="black" d="M346.27,-114.73C346.27,-114.73 346.27,-140.87 346.27,-140.87"/>
<polygon fill="black" stroke="black" points="342.77,-140.87 346.27,-150.87 349.77,-140.87 342.77,-140.87"/>
</g>
</g>
</svg>
