<?xml version="1.0" encoding="UTF-8" standalone="no"?>
<!DOCTYPE svg PUBLIC "-//W3C//DTD SVG 1.1//EN"
 "http://www.w3.org/Graphics/SVG/1.1/DTD/svg11.dtd">
<!-- Generated by graphviz version 2.47.0 (20210316.0004)
 -->
<!-- Title: dependencies Pages: 1 -->
<svg width="504pt" height="211pt"
 viewBox="0.00 0.00 504.00 211.00" xmlns="http://www.w3.org/2000/svg" xmlns:xlink="http://www.w3.org/1999/xlink">
<g id="graph0" class="graph" transform="scale(1 1) rotate(0) translate(4 207)">
<title>dependencies</title>
<polygon fill="white" stroke="transparent" points="-4,4 -4,-207 500,-207 500,4 -4,4"/>
<text text-anchor="start" x="227.01" y="-42.4" font-family="Times-12" font-weight="bold" font-size="14.00">Legend</text>
<polygon fill="#ffffb3" stroke="transparent" points="14,-10 14,-30 34,-30 34,-10 14,-10"/>
<text text-anchor="start" x="37.63" y="-15.4" font-family="Times-12" font-size="14.00"> &#160;Declarations</text>
<polygon fill="#8dd3c7" stroke="transparent" points="127,-10 127,-30 147,-30 147,-10 127,-10"/>
<text text-anchor="start" x="150.73" y="-15.4" font-family="Times-12" font-size="14.00"> &#160;Module</text>
<polygon fill="#80b1d3" stroke="transparent" points="213,-10 213,-30 233,-30 233,-10 213,-10"/>
<text text-anchor="start" x="236.78" y="-15.4" font-family="Times-12" font-size="14.00"> &#160;Bootstrap</text>
<polygon fill="#fdb462" stroke="transparent" points="310,-10 310,-30 330,-30 330,-10 310,-10"/>
<text text-anchor="start" x="333.67" y="-15.4" font-family="Times-12" font-size="14.00"> &#160;Providers</text>
<polygon fill="#fb8072" stroke="transparent" points="406,-10 406,-30 426,-30 426,-10 406,-10"/>
<text text-anchor="start" x="429.73" y="-15.4" font-family="Times-12" font-size="14.00"> &#160;Exports</text>
<g id="clust1" class="cluster">
<title>cluster_ChangeStreamsModule</title>
<polygon fill="none" stroke="black" stroke-dasharray="1,5" points="9,-70 9,-195 487,-195 487,-70 9,-70"/>
</g>
<g id="clust3" class="cluster">
<title>cluster_ChangeStreamsModule_imports</title>
<polygon fill="none" stroke="black" points="243,-78 243,-130 479,-130 479,-78 243,-78"/>
</g>
<g id="clust6" class="cluster">
<title>cluster_ChangeStreamsModule_providers</title>
<polygon fill="none" stroke="black" points="17,-78 17,-130 235,-130 235,-78 17,-78"/>
</g>
<!-- DatabaseModule -->
<g id="node1" class="node">
<title>DatabaseModule</title>
<polygon fill="#8dd3c7" stroke="black" points="471.35,-122 468.35,-126 447.35,-126 444.35,-122 360.65,-122 360.65,-86 471.35,-86 471.35,-122"/>
<text text-anchor="middle" x="416" y="-99.8" font-family="Times,serif" font-size="14.00">DatabaseModule</text>
</g>
<!-- ChangeStreamsModule -->
<g id="node3" class="node">
<title>ChangeStreamsModule</title>
<polygon fill="#8dd3c7" stroke="black" points="370.91,-187 367.91,-191 346.91,-191 343.91,-187 223.09,-187 223.09,-151 370.91,-151 370.91,-187"/>
<text text-anchor="middle" x="297" y="-164.8" font-family="Times,serif" font-size="14.00">ChangeStreamsModule</text>
</g>
<!-- DatabaseModule&#45;&gt;ChangeStreamsModule -->
<g id="edge1" class="edge">
<title>DatabaseModule&#45;&gt;ChangeStreamsModule</title>
<path fill="none" stroke="black" d="M365.64,-122.11C365.64,-122.11 365.64,-140.99 365.64,-140.99"/>
<polygon fill="black" stroke="black" points="362.14,-140.99 365.64,-150.99 369.14,-140.99 362.14,-140.99"/>
</g>
<!-- UsersModule -->
<g id="node2" class="node">
<title>UsersModule</title>
<polygon fill="#8dd3c7" stroke="black" points="342.92,-122 339.92,-126 318.92,-126 315.92,-122 251.08,-122 251.08,-86 342.92,-86 342.92,-122"/>
<text text-anchor="middle" x="297" y="-99.8" font-family="Times,serif" font-size="14.00">UsersModule</text>
</g>
<!-- UsersModule&#45;&gt;ChangeStreamsModule -->
<g id="edge2" class="edge">
<title>UsersModule&#45;&gt;ChangeStreamsModule</title>
<path fill="none" stroke="black" d="M297,-122.11C297,-122.11 297,-140.99 297,-140.99"/>
<polygon fill="black" stroke="black" points="293.5,-140.99 297,-150.99 300.5,-140.99 293.5,-140.99"/>
</g>
<!-- ChangeStreamsService -->
<g id="node4" class="node">
<title>ChangeStreamsService</title>
<ellipse fill="#fdb462" stroke="black" cx="126" cy="-104" rx="100.7" ry="18"/>
<text text-anchor="middle" x="126" y="-99.8" font-family="Times,serif" font-size="14.00">ChangeStreamsService</text>
</g>
<!-- ChangeStreamsService&#45;&gt;ChangeStreamsModule -->
<g id="edge3" class="edge">
<title>ChangeStreamsService&#45;&gt;ChangeStreamsModule</title>
<path fill="none" stroke="black" d="M226.86,-104C234.28,-104 238.94,-104 238.94,-104 238.94,-104 238.94,-140.89 238.94,-140.89"/>
<polygon fill="black" stroke="black" points="235.44,-140.89 238.94,-150.89 242.44,-140.89 235.44,-140.89"/>
</g>
</g>
</svg>
