<?xml version="1.0" encoding="UTF-8" standalone="no"?>
<!DOCTYPE svg PUBLIC "-//W3C//DTD SVG 1.1//EN"
 "http://www.w3.org/Graphics/SVG/1.1/DTD/svg11.dtd">
<!-- Generated by graphviz version 2.47.0 (20210316.0004)
 -->
<!-- Title: dependencies Pages: 1 -->
<svg width="504pt" height="284pt"
 viewBox="0.00 0.00 504.00 284.00" xmlns="http://www.w3.org/2000/svg" xmlns:xlink="http://www.w3.org/1999/xlink">
<g id="graph0" class="graph" transform="scale(1 1) rotate(0) translate(4 280)">
<title>dependencies</title>
<polygon fill="white" stroke="transparent" points="-4,4 -4,-280 500,-280 500,4 -4,4"/>
<text text-anchor="start" x="227.01" y="-42.4" font-family="Times-12" font-weight="bold" font-size="14.00">Legend</text>
<polygon fill="#ffffb3" stroke="transparent" points="14,-10 14,-30 34,-30 34,-10 14,-10"/>
<text text-anchor="start" x="37.63" y="-15.4" font-family="Times-12" font-size="14.00"> &#160;Declarations</text>
<polygon fill="#8dd3c7" stroke="transparent" points="127,-10 127,-30 147,-30 147,-10 127,-10"/>
<text text-anchor="start" x="150.73" y="-15.4" font-family="Times-12" font-size="14.00"> &#160;Module</text>
<polygon fill="#80b1d3" stroke="transparent" points="213,-10 213,-30 233,-30 233,-10 213,-10"/>
<text text-anchor="start" x="236.78" y="-15.4" font-family="Times-12" font-size="14.00"> &#160;Bootstrap</text>
<polygon fill="#fdb462" stroke="transparent" points="310,-10 310,-30 330,-30 330,-10 310,-10"/>
<text text-anchor="start" x="333.67" y="-15.4" font-family="Times-12" font-size="14.00"> &#160;Providers</text>
<polygon fill="#fb8072" stroke="transparent" points="406,-10 406,-30 426,-30 426,-10 406,-10"/>
<text text-anchor="start" x="429.73" y="-15.4" font-family="Times-12" font-size="14.00"> &#160;Exports</text>
<g id="clust1" class="cluster">
<title>cluster_PhoneConfirmationModule</title>
<polygon fill="none" stroke="black" stroke-dasharray="1,5" points="58,-70 58,-268 438,-268 438,-70 58,-70"/>
</g>
<g id="clust3" class="cluster">
<title>cluster_PhoneConfirmationModule_imports</title>
<polygon fill="none" stroke="black" points="322,-78 322,-130 430,-130 430,-78 322,-78"/>
</g>
<g id="clust4" class="cluster">
<title>cluster_PhoneConfirmationModule_exports</title>
<polygon fill="none" stroke="black" points="169,-208 169,-260 357,-260 357,-208 169,-208"/>
</g>
<g id="clust6" class="cluster">
<title>cluster_PhoneConfirmationModule_providers</title>
<polygon fill="none" stroke="black" points="66,-78 66,-130 314,-130 314,-78 66,-78"/>
</g>
<!-- UsersModule -->
<g id="node1" class="node">
<title>UsersModule</title>
<polygon fill="#8dd3c7" stroke="black" points="421.92,-122 418.92,-126 397.92,-126 394.92,-122 330.08,-122 330.08,-86 421.92,-86 421.92,-122"/>
<text text-anchor="middle" x="376" y="-99.8" font-family="Times,serif" font-size="14.00">UsersModule</text>
</g>
<!-- PhoneConfirmationModule -->
<g id="node2" class="node">
<title>PhoneConfirmationModule</title>
<polygon fill="#8dd3c7" stroke="black" points="347.98,-187 344.98,-191 323.98,-191 320.98,-187 178.02,-187 178.02,-151 347.98,-151 347.98,-187"/>
<text text-anchor="middle" x="263" y="-164.8" font-family="Times,serif" font-size="14.00">PhoneConfirmationModule</text>
</g>
<!-- UsersModule&#45;&gt;PhoneConfirmationModule -->
<g id="edge1" class="edge">
<title>UsersModule&#45;&gt;PhoneConfirmationModule</title>
<path fill="none" stroke="black" d="M339.14,-122.11C339.14,-122.11 339.14,-140.99 339.14,-140.99"/>
<polygon fill="black" stroke="black" points="335.64,-140.99 339.14,-150.99 342.64,-140.99 335.64,-140.99"/>
</g>
<!-- PhoneConfirmationService  -->
<g id="node3" class="node">
<title>PhoneConfirmationService </title>
<polygon fill="#fb8072" stroke="black" points="348.91,-252 177.09,-252 177.09,-216 348.91,-216 348.91,-252"/>
<text text-anchor="middle" x="263" y="-229.8" font-family="Times,serif" font-size="14.00">PhoneConfirmationService </text>
</g>
<!-- PhoneConfirmationModule&#45;&gt;PhoneConfirmationService  -->
<g id="edge2" class="edge">
<title>PhoneConfirmationModule&#45;&gt;PhoneConfirmationService </title>
<path fill="none" stroke="black" stroke-dasharray="5,2" d="M263,-187.11C263,-187.11 263,-205.99 263,-205.99"/>
<polygon fill="black" stroke="black" points="259.5,-205.99 263,-215.99 266.5,-205.99 259.5,-205.99"/>
</g>
<!-- PhoneConfirmationService -->
<g id="node4" class="node">
<title>PhoneConfirmationService</title>
<ellipse fill="#fdb462" stroke="black" cx="190" cy="-104" rx="116.33" ry="18"/>
<text text-anchor="middle" x="190" y="-99.8" font-family="Times,serif" font-size="14.00">PhoneConfirmationService</text>
</g>
<!-- PhoneConfirmationService&#45;&gt;PhoneConfirmationModule -->
<g id="edge3" class="edge">
<title>PhoneConfirmationService&#45;&gt;PhoneConfirmationModule</title>
<path fill="none" stroke="black" d="M242.09,-120.4C242.09,-120.4 242.09,-140.54 242.09,-140.54"/>
<polygon fill="black" stroke="black" points="238.59,-140.54 242.09,-150.54 245.59,-140.54 238.59,-140.54"/>
</g>
</g>
</svg>
