<?xml version="1.0" encoding="UTF-8" standalone="no"?>
<!DOCTYPE svg PUBLIC "-//W3C//DTD SVG 1.1//EN"
 "http://www.w3.org/Graphics/SVG/1.1/DTD/svg11.dtd">
<!-- Generated by graphviz version 2.47.0 (20210316.0004)
 -->
<!-- Title: dependencies Pages: 1 -->
<svg width="504pt" height="284pt"
 viewBox="0.00 0.00 504.00 284.00" xmlns="http://www.w3.org/2000/svg" xmlns:xlink="http://www.w3.org/1999/xlink">
<g id="graph0" class="graph" transform="scale(1 1) rotate(0) translate(4 280)">
<title>dependencies</title>
<polygon fill="white" stroke="transparent" points="-4,4 -4,-280 500,-280 500,4 -4,4"/>
<text text-anchor="start" x="227.01" y="-42.4" font-family="Times-12" font-weight="bold" font-size="14.00">Legend</text>
<polygon fill="#ffffb3" stroke="transparent" points="14,-10 14,-30 34,-30 34,-10 14,-10"/>
<text text-anchor="start" x="37.63" y="-15.4" font-family="Times-12" font-size="14.00"> &#160;Declarations</text>
<polygon fill="#8dd3c7" stroke="transparent" points="127,-10 127,-30 147,-30 147,-10 127,-10"/>
<text text-anchor="start" x="150.73" y="-15.4" font-family="Times-12" font-size="14.00"> &#160;Module</text>
<polygon fill="#80b1d3" stroke="transparent" points="213,-10 213,-30 233,-30 233,-10 213,-10"/>
<text text-anchor="start" x="236.78" y="-15.4" font-family="Times-12" font-size="14.00"> &#160;Bootstrap</text>
<polygon fill="#fdb462" stroke="transparent" points="310,-10 310,-30 330,-30 330,-10 310,-10"/>
<text text-anchor="start" x="333.67" y="-15.4" font-family="Times-12" font-size="14.00"> &#160;Providers</text>
<polygon fill="#fb8072" stroke="transparent" points="406,-10 406,-30 426,-30 426,-10 406,-10"/>
<text text-anchor="start" x="429.73" y="-15.4" font-family="Times-12" font-size="14.00"> &#160;Exports</text>
<g id="clust1" class="cluster">
<title>cluster_RateModule</title>
<polygon fill="none" stroke="black" stroke-dasharray="1,5" points="94,-70 94,-268 402,-268 402,-70 94,-70"/>
</g>
<g id="clust6" class="cluster">
<title>cluster_RateModule_providers</title>
<polygon fill="none" stroke="black" points="102,-78 102,-130 394,-130 394,-78 102,-78"/>
</g>
<g id="clust4" class="cluster">
<title>cluster_RateModule_exports</title>
<polygon fill="none" stroke="black" points="122,-208 122,-260 350,-260 350,-208 122,-208"/>
</g>
<!-- RateRepository  -->
<g id="node1" class="node">
<title>RateRepository </title>
<polygon fill="#fb8072" stroke="black" points="342.09,-252 235.91,-252 235.91,-216 342.09,-216 342.09,-252"/>
<text text-anchor="middle" x="289" y="-229.8" font-family="Times,serif" font-size="14.00">RateRepository </text>
</g>
<!-- RateService  -->
<g id="node2" class="node">
<title>RateService </title>
<polygon fill="#fb8072" stroke="black" points="217.63,-252 130.37,-252 130.37,-216 217.63,-216 217.63,-252"/>
<text text-anchor="middle" x="174" y="-229.8" font-family="Times,serif" font-size="14.00">RateService </text>
</g>
<!-- RateModule -->
<g id="node3" class="node">
<title>RateModule</title>
<polygon fill="#8dd3c7" stroke="black" points="235.71,-187 232.71,-191 211.71,-191 208.71,-187 150.29,-187 150.29,-151 235.71,-151 235.71,-187"/>
<text text-anchor="middle" x="193" y="-164.8" font-family="Times,serif" font-size="14.00">RateModule</text>
</g>
<!-- RateModule&#45;&gt;RateRepository  -->
<g id="edge1" class="edge">
<title>RateModule&#45;&gt;RateRepository </title>
<path fill="none" stroke="black" stroke-dasharray="5,2" d="M235.81,-169C238.28,-169 239.8,-169 239.8,-169 239.8,-169 239.8,-205.89 239.8,-205.89"/>
<polygon fill="black" stroke="black" points="236.3,-205.89 239.8,-215.89 243.3,-205.89 236.3,-205.89"/>
</g>
<!-- RateModule&#45;&gt;RateService  -->
<g id="edge2" class="edge">
<title>RateModule&#45;&gt;RateService </title>
<path fill="none" stroke="black" stroke-dasharray="5,2" d="M183.98,-187.11C183.98,-187.11 183.98,-205.99 183.98,-205.99"/>
<polygon fill="black" stroke="black" points="180.48,-205.99 183.98,-215.99 187.48,-205.99 180.48,-205.99"/>
</g>
<!-- RateRepository -->
<g id="node4" class="node">
<title>RateRepository</title>
<ellipse fill="#fdb462" stroke="black" cx="315" cy="-104" rx="71.22" ry="18"/>
<text text-anchor="middle" x="315" y="-99.8" font-family="Times,serif" font-size="14.00">RateRepository</text>
</g>
<!-- RateRepository&#45;&gt;RateModule -->
<g id="edge3" class="edge">
<title>RateRepository&#45;&gt;RateModule</title>
<path fill="none" stroke="black" d="M243.83,-104C235.92,-104 230.65,-104 230.65,-104 230.65,-104 230.65,-140.89 230.65,-140.89"/>
<polygon fill="black" stroke="black" points="227.15,-140.89 230.65,-150.89 234.15,-140.89 227.15,-140.89"/>
</g>
<!-- RateService -->
<g id="node5" class="node">
<title>RateService</title>
<ellipse fill="#fdb462" stroke="black" cx="168" cy="-104" rx="57.88" ry="18"/>
<text text-anchor="middle" x="168" y="-99.8" font-family="Times,serif" font-size="14.00">RateService</text>
</g>
<!-- RateService&#45;&gt;RateModule -->
<g id="edge4" class="edge">
<title>RateService&#45;&gt;RateModule</title>
<path fill="none" stroke="black" d="M188.04,-121.08C188.04,-121.08 188.04,-140.9 188.04,-140.9"/>
<polygon fill="black" stroke="black" points="184.54,-140.9 188.04,-150.9 191.54,-140.9 184.54,-140.9"/>
</g>
</g>
</svg>
