<?xml version="1.0" encoding="UTF-8" standalone="no"?>
<!DOCTYPE svg PUBLIC "-//W3C//DTD SVG 1.1//EN"
 "http://www.w3.org/Graphics/SVG/1.1/DTD/svg11.dtd">
<!-- Generated by graphviz version 2.47.0 (20210316.0004)
 -->
<!-- Title: dependencies Pages: 1 -->
<svg width="1208pt" height="211pt"
 viewBox="0.00 0.00 1208.00 211.00" xmlns="http://www.w3.org/2000/svg" xmlns:xlink="http://www.w3.org/1999/xlink">
<g id="graph0" class="graph" transform="scale(1 1) rotate(0) translate(4 207)">
<title>dependencies</title>
<polygon fill="white" stroke="transparent" points="-4,4 -4,-207 1204,-207 1204,4 -4,4"/>
<text text-anchor="start" x="579.01" y="-42.4" font-family="Times-12" font-weight="bold" font-size="14.00">Legend</text>
<polygon fill="#ffffb3" stroke="transparent" points="366,-10 366,-30 386,-30 386,-10 366,-10"/>
<text text-anchor="start" x="389.63" y="-15.4" font-family="Times-12" font-size="14.00"> &#160;Declarations</text>
<polygon fill="#8dd3c7" stroke="transparent" points="479,-10 479,-30 499,-30 499,-10 479,-10"/>
<text text-anchor="start" x="502.73" y="-15.4" font-family="Times-12" font-size="14.00"> &#160;Module</text>
<polygon fill="#80b1d3" stroke="transparent" points="565,-10 565,-30 585,-30 585,-10 565,-10"/>
<text text-anchor="start" x="588.78" y="-15.4" font-family="Times-12" font-size="14.00"> &#160;Bootstrap</text>
<polygon fill="#fdb462" stroke="transparent" points="662,-10 662,-30 682,-30 682,-10 662,-10"/>
<text text-anchor="start" x="685.67" y="-15.4" font-family="Times-12" font-size="14.00"> &#160;Providers</text>
<polygon fill="#fb8072" stroke="transparent" points="758,-10 758,-30 778,-30 778,-10 758,-10"/>
<text text-anchor="start" x="781.73" y="-15.4" font-family="Times-12" font-size="14.00"> &#160;Exports</text>
<g id="clust1" class="cluster">
<title>cluster_AppModule</title>
<polygon fill="none" stroke="black" stroke-dasharray="1,5" points="8,-70 8,-195 1192,-195 1192,-70 8,-70"/>
</g>
<g id="clust6" class="cluster">
<title>cluster_AppModule_providers</title>
<polygon fill="none" stroke="black" points="1054,-78 1054,-130 1184,-130 1184,-78 1054,-78"/>
</g>
<g id="clust3" class="cluster">
<title>cluster_AppModule_imports</title>
<polygon fill="none" stroke="black" points="16,-78 16,-130 1046,-130 1046,-78 16,-78"/>
</g>
<!-- AuthModule -->
<g id="node1" class="node">
<title>AuthModule</title>
<polygon fill="#8dd3c7" stroke="black" points="1037.55,-122 1034.55,-126 1013.55,-126 1010.55,-122 950.45,-122 950.45,-86 1037.55,-86 1037.55,-122"/>
<text text-anchor="middle" x="994" y="-99.8" font-family="Times,serif" font-size="14.00">AuthModule</text>
</g>
<!-- AppModule -->
<g id="node9" class="node">
<title>AppModule</title>
<polygon fill="#8dd3c7" stroke="black" points="677.66,-187 674.66,-191 653.66,-191 650.66,-187 594.34,-187 594.34,-151 677.66,-151 677.66,-187"/>
<text text-anchor="middle" x="636" y="-164.8" font-family="Times,serif" font-size="14.00">AppModule</text>
</g>
<!-- AuthModule&#45;&gt;AppModule -->
<g id="edge1" class="edge">
<title>AuthModule&#45;&gt;AppModule</title>
<path fill="none" stroke="black" d="M994,-122.13C994,-142.57 994,-173 994,-173 994,-173 687.77,-173 687.77,-173"/>
<polygon fill="black" stroke="black" points="687.77,-169.5 677.77,-173 687.77,-176.5 687.77,-169.5"/>
</g>
<!-- ChatModule -->
<g id="node2" class="node">
<title>ChatModule</title>
<polygon fill="#8dd3c7" stroke="black" points="931.99,-122 928.99,-126 907.99,-126 904.99,-122 846.01,-122 846.01,-86 931.99,-86 931.99,-122"/>
<text text-anchor="middle" x="889" y="-99.8" font-family="Times,serif" font-size="14.00">ChatModule</text>
</g>
<!-- ChatModule&#45;&gt;AppModule -->
<g id="edge2" class="edge">
<title>ChatModule&#45;&gt;AppModule</title>
<path fill="none" stroke="black" d="M889,-122.27C889,-140.56 889,-166 889,-166 889,-166 687.78,-166 687.78,-166"/>
<polygon fill="black" stroke="black" points="687.78,-162.5 677.78,-166 687.78,-169.5 687.78,-162.5"/>
</g>
<!-- DatabaseModule -->
<g id="node3" class="node">
<title>DatabaseModule</title>
<polygon fill="#8dd3c7" stroke="black" points="828.35,-122 825.35,-126 804.35,-126 801.35,-122 717.65,-122 717.65,-86 828.35,-86 828.35,-122"/>
<text text-anchor="middle" x="773" y="-99.8" font-family="Times,serif" font-size="14.00">DatabaseModule</text>
</g>
<!-- DatabaseModule&#45;&gt;AppModule -->
<g id="edge3" class="edge">
<title>DatabaseModule&#45;&gt;AppModule</title>
<path fill="none" stroke="black" d="M773,-122.01C773,-138.05 773,-159 773,-159 773,-159 687.85,-159 687.85,-159"/>
<polygon fill="black" stroke="black" points="687.85,-155.5 677.85,-159 687.85,-162.5 687.85,-155.5"/>
</g>
<!-- NotificationModule -->
<g id="node4" class="node">
<title>NotificationModule</title>
<polygon fill="#8dd3c7" stroke="black" points="699.7,-122 696.7,-126 675.7,-126 672.7,-122 572.3,-122 572.3,-86 699.7,-86 699.7,-122"/>
<text text-anchor="middle" x="636" y="-99.8" font-family="Times,serif" font-size="14.00">NotificationModule</text>
</g>
<!-- NotificationModule&#45;&gt;AppModule -->
<g id="edge4" class="edge">
<title>NotificationModule&#45;&gt;AppModule</title>
<path fill="none" stroke="black" d="M636,-122.11C636,-122.11 636,-140.99 636,-140.99"/>
<polygon fill="black" stroke="black" points="632.5,-140.99 636,-150.99 639.5,-140.99 632.5,-140.99"/>
</g>
<!-- PhoneConfirmationModule -->
<g id="node5" class="node">
<title>PhoneConfirmationModule</title>
<polygon fill="#8dd3c7" stroke="black" points="553.98,-122 550.98,-126 529.98,-126 526.98,-122 384.02,-122 384.02,-86 553.98,-86 553.98,-122"/>
<text text-anchor="middle" x="469" y="-99.8" font-family="Times,serif" font-size="14.00">PhoneConfirmationModule</text>
</g>
<!-- PhoneConfirmationModule&#45;&gt;AppModule -->
<g id="edge5" class="edge">
<title>PhoneConfirmationModule&#45;&gt;AppModule</title>
<path fill="none" stroke="black" d="M469,-122.01C469,-138.05 469,-159 469,-159 469,-159 584.29,-159 584.29,-159"/>
<polygon fill="black" stroke="black" points="584.29,-162.5 594.29,-159 584.29,-155.5 584.29,-162.5"/>
</g>
<!-- RateModule -->
<g id="node6" class="node">
<title>RateModule</title>
<polygon fill="#8dd3c7" stroke="black" points="365.71,-122 362.71,-126 341.71,-126 338.71,-122 280.29,-122 280.29,-86 365.71,-86 365.71,-122"/>
<text text-anchor="middle" x="323" y="-99.8" font-family="Times,serif" font-size="14.00">RateModule</text>
</g>
<!-- RateModule&#45;&gt;AppModule -->
<g id="edge6" class="edge">
<title>RateModule&#45;&gt;AppModule</title>
<path fill="none" stroke="black" d="M323,-122.27C323,-140.56 323,-166 323,-166 323,-166 584.11,-166 584.11,-166"/>
<polygon fill="black" stroke="black" points="584.11,-169.5 594.11,-166 584.11,-162.5 584.11,-169.5"/>
</g>
<!-- UploadFilesModule -->
<g id="node7" class="node">
<title>UploadFilesModule</title>
<polygon fill="#8dd3c7" stroke="black" points="261.98,-122 258.98,-126 237.98,-126 234.98,-122 134.02,-122 134.02,-86 261.98,-86 261.98,-122"/>
<text text-anchor="middle" x="198" y="-99.8" font-family="Times,serif" font-size="14.00">UploadFilesModule</text>
</g>
<!-- UploadFilesModule&#45;&gt;AppModule -->
<g id="edge7" class="edge">
<title>UploadFilesModule&#45;&gt;AppModule</title>
<path fill="none" stroke="black" d="M198,-122.13C198,-142.57 198,-173 198,-173 198,-173 584,-173 584,-173"/>
<polygon fill="black" stroke="black" points="584,-176.5 594,-173 584,-169.5 584,-176.5"/>
</g>
<!-- UsersModule -->
<g id="node8" class="node">
<title>UsersModule</title>
<polygon fill="#8dd3c7" stroke="black" points="115.92,-122 112.92,-126 91.92,-126 88.92,-122 24.08,-122 24.08,-86 115.92,-86 115.92,-122"/>
<text text-anchor="middle" x="70" y="-99.8" font-family="Times,serif" font-size="14.00">UsersModule</text>
</g>
<!-- UsersModule&#45;&gt;AppModule -->
<g id="edge8" class="edge">
<title>UsersModule&#45;&gt;AppModule</title>
<path fill="none" stroke="black" d="M70,-122.01C70,-144.49 70,-180 70,-180 70,-180 583.92,-180 583.92,-180"/>
<polygon fill="black" stroke="black" points="583.92,-183.5 593.92,-180 583.92,-176.5 583.92,-183.5"/>
</g>
<!-- AppService -->
<g id="node10" class="node">
<title>AppService</title>
<ellipse fill="#fdb462" stroke="black" cx="1119" cy="-104" rx="56.74" ry="18"/>
<text text-anchor="middle" x="1119" y="-99.8" font-family="Times,serif" font-size="14.00">AppService</text>
</g>
<!-- AppService&#45;&gt;AppModule -->
<g id="edge9" class="edge">
<title>AppService&#45;&gt;AppModule</title>
<path fill="none" stroke="black" d="M1119,-122.01C1119,-144.49 1119,-180 1119,-180 1119,-180 688.02,-180 688.02,-180"/>
<polygon fill="black" stroke="black" points="688.02,-176.5 678.02,-180 688.02,-183.5 688.02,-176.5"/>
</g>
</g>
</svg>
