<?xml version="1.0" encoding="UTF-8" standalone="no"?>
<!DOCTYPE svg PUBLIC "-//W3C//DTD SVG 1.1//EN"
 "http://www.w3.org/Graphics/SVG/1.1/DTD/svg11.dtd">
<!-- Generated by graphviz version 2.47.0 (20210316.0004)
 -->
<!-- Title: dependencies Pages: 1 -->
<svg width="564pt" height="284pt"
 viewBox="0.00 0.00 564.00 284.00" xmlns="http://www.w3.org/2000/svg" xmlns:xlink="http://www.w3.org/1999/xlink">
<g id="graph0" class="graph" transform="scale(1 1) rotate(0) translate(4 280)">
<title>dependencies</title>
<polygon fill="white" stroke="transparent" points="-4,4 -4,-280 560,-280 560,4 -4,4"/>
<text text-anchor="start" x="257.01" y="-42.4" font-family="Times-12" font-weight="bold" font-size="14.00">Legend</text>
<polygon fill="#ffffb3" stroke="transparent" points="44,-10 44,-30 64,-30 64,-10 44,-10"/>
<text text-anchor="start" x="67.63" y="-15.4" font-family="Times-12" font-size="14.00"> &#160;Declarations</text>
<polygon fill="#8dd3c7" stroke="transparent" points="157,-10 157,-30 177,-30 177,-10 157,-10"/>
<text text-anchor="start" x="180.73" y="-15.4" font-family="Times-12" font-size="14.00"> &#160;Module</text>
<polygon fill="#80b1d3" stroke="transparent" points="243,-10 243,-30 263,-30 263,-10 243,-10"/>
<text text-anchor="start" x="266.78" y="-15.4" font-family="Times-12" font-size="14.00"> &#160;Bootstrap</text>
<polygon fill="#fdb462" stroke="transparent" points="340,-10 340,-30 360,-30 360,-10 340,-10"/>
<text text-anchor="start" x="363.67" y="-15.4" font-family="Times-12" font-size="14.00"> &#160;Providers</text>
<polygon fill="#fb8072" stroke="transparent" points="436,-10 436,-30 456,-30 456,-10 436,-10"/>
<text text-anchor="start" x="459.73" y="-15.4" font-family="Times-12" font-size="14.00"> &#160;Exports</text>
<g id="clust1" class="cluster">
<title>cluster_NotificationModule</title>
<polygon fill="none" stroke="black" stroke-dasharray="1,5" points="8,-70 8,-268 548,-268 548,-70 8,-70"/>
</g>
<g id="clust4" class="cluster">
<title>cluster_NotificationModule_exports</title>
<polygon fill="none" stroke="black" points="157,-208 157,-260 469,-260 469,-208 157,-208"/>
</g>
<g id="clust3" class="cluster">
<title>cluster_NotificationModule_imports</title>
<polygon fill="none" stroke="black" points="432,-78 432,-130 540,-130 540,-78 432,-78"/>
</g>
<g id="clust6" class="cluster">
<title>cluster_NotificationModule_providers</title>
<polygon fill="none" stroke="black" points="16,-78 16,-130 424,-130 424,-78 16,-78"/>
</g>
<!-- UsersModule -->
<g id="node1" class="node">
<title>UsersModule</title>
<polygon fill="#8dd3c7" stroke="black" points="531.92,-122 528.92,-126 507.92,-126 504.92,-122 440.08,-122 440.08,-86 531.92,-86 531.92,-122"/>
<text text-anchor="middle" x="486" y="-99.8" font-family="Times,serif" font-size="14.00">UsersModule</text>
</g>
<!-- NotificationModule -->
<g id="node2" class="node">
<title>NotificationModule</title>
<polygon fill="#8dd3c7" stroke="black" points="379.7,-187 376.7,-191 355.7,-191 352.7,-187 252.3,-187 252.3,-151 379.7,-151 379.7,-187"/>
<text text-anchor="middle" x="316" y="-164.8" font-family="Times,serif" font-size="14.00">NotificationModule</text>
</g>
<!-- UsersModule&#45;&gt;NotificationModule -->
<g id="edge1" class="edge">
<title>UsersModule&#45;&gt;NotificationModule</title>
<path fill="none" stroke="black" d="M450.79,-122.11C450.79,-141.34 450.79,-169 450.79,-169 450.79,-169 389.84,-169 389.84,-169"/>
<polygon fill="black" stroke="black" points="389.84,-165.5 379.84,-169 389.84,-172.5 389.84,-165.5"/>
</g>
<!-- NotificationRepository  -->
<g id="node3" class="node">
<title>NotificationRepository </title>
<polygon fill="#fb8072" stroke="black" points="461.09,-252 312.91,-252 312.91,-216 461.09,-216 461.09,-252"/>
<text text-anchor="middle" x="387" y="-229.8" font-family="Times,serif" font-size="14.00">NotificationRepository </text>
</g>
<!-- NotificationModule&#45;&gt;NotificationRepository  -->
<g id="edge2" class="edge">
<title>NotificationModule&#45;&gt;NotificationRepository </title>
<path fill="none" stroke="black" stroke-dasharray="5,2" d="M346.15,-187.11C346.15,-187.11 346.15,-205.99 346.15,-205.99"/>
<polygon fill="black" stroke="black" points="342.65,-205.99 346.15,-215.99 349.65,-205.99 342.65,-205.99"/>
</g>
<!-- NotificationService  -->
<g id="node4" class="node">
<title>NotificationService </title>
<polygon fill="#fb8072" stroke="black" points="294.63,-252 165.37,-252 165.37,-216 294.63,-216 294.63,-252"/>
<text text-anchor="middle" x="230" y="-229.8" font-family="Times,serif" font-size="14.00">NotificationService </text>
</g>
<!-- NotificationModule&#45;&gt;NotificationService  -->
<g id="edge3" class="edge">
<title>NotificationModule&#45;&gt;NotificationService </title>
<path fill="none" stroke="black" stroke-dasharray="5,2" d="M273.48,-187.11C273.48,-187.11 273.48,-205.99 273.48,-205.99"/>
<polygon fill="black" stroke="black" points="269.98,-205.99 273.48,-215.99 276.98,-205.99 269.98,-205.99"/>
</g>
<!-- NotificationRepository -->
<g id="node5" class="node">
<title>NotificationRepository</title>
<ellipse fill="#fdb462" stroke="black" cx="316" cy="-104" rx="100.16" ry="18"/>
<text text-anchor="middle" x="316" y="-99.8" font-family="Times,serif" font-size="14.00">NotificationRepository</text>
</g>
<!-- NotificationRepository&#45;&gt;NotificationModule -->
<g id="edge4" class="edge">
<title>NotificationRepository&#45;&gt;NotificationModule</title>
<path fill="none" stroke="black" d="M316,-122.11C316,-122.11 316,-140.99 316,-140.99"/>
<polygon fill="black" stroke="black" points="312.5,-140.99 316,-150.99 319.5,-140.99 312.5,-140.99"/>
</g>
<!-- NotificationService -->
<g id="node6" class="node">
<title>NotificationService</title>
<ellipse fill="#fdb462" stroke="black" cx="111" cy="-104" rx="86.81" ry="18"/>
<text text-anchor="middle" x="111" y="-99.8" font-family="Times,serif" font-size="14.00">NotificationService</text>
</g>
<!-- NotificationService&#45;&gt;NotificationModule -->
<g id="edge5" class="edge">
<title>NotificationService&#45;&gt;NotificationModule</title>
<path fill="none" stroke="black" d="M181.55,-114.73C181.55,-133.2 181.55,-169 181.55,-169 181.55,-169 242.32,-169 242.32,-169"/>
<polygon fill="black" stroke="black" points="242.32,-172.5 252.32,-169 242.32,-165.5 242.32,-172.5"/>
</g>
</g>
</svg>
