<?xml version="1.0" encoding="UTF-8" standalone="no"?>
<!DOCTYPE svg PUBLIC "-//W3C//DTD SVG 1.1//EN"
 "http://www.w3.org/Graphics/SVG/1.1/DTD/svg11.dtd">
<!-- Generated by graphviz version 2.47.0 (20210316.0004)
 -->
<!-- Title: dependencies Pages: 1 -->
<svg width="3171pt" height="499pt"
 viewBox="0.00 0.00 3171.00 499.00" xmlns="http://www.w3.org/2000/svg" xmlns:xlink="http://www.w3.org/1999/xlink">
<g id="graph0" class="graph" transform="scale(1 1) rotate(0) translate(4 495)">
<title>dependencies</title>
<polygon fill="white" stroke="transparent" points="-4,4 -4,-495 3167,-495 3167,4 -4,4"/>
<text text-anchor="start" x="1560.51" y="-42.4" font-family="Times-12" font-weight="bold" font-size="14.00">Legend</text>
<polygon fill="#ffffb3" stroke="transparent" points="1347.5,-10 1347.5,-30 1367.5,-30 1367.5,-10 1347.5,-10"/>
<text text-anchor="start" x="1371.13" y="-15.4" font-family="Times-12" font-size="14.00"> &#160;Declarations</text>
<polygon fill="#8dd3c7" stroke="transparent" points="1460.5,-10 1460.5,-30 1480.5,-30 1480.5,-10 1460.5,-10"/>
<text text-anchor="start" x="1484.23" y="-15.4" font-family="Times-12" font-size="14.00"> &#160;Module</text>
<polygon fill="#80b1d3" stroke="transparent" points="1546.5,-10 1546.5,-30 1566.5,-30 1566.5,-10 1546.5,-10"/>
<text text-anchor="start" x="1570.28" y="-15.4" font-family="Times-12" font-size="14.00"> &#160;Bootstrap</text>
<polygon fill="#fdb462" stroke="transparent" points="1643.5,-10 1643.5,-30 1663.5,-30 1663.5,-10 1643.5,-10"/>
<text text-anchor="start" x="1667.17" y="-15.4" font-family="Times-12" font-size="14.00"> &#160;Providers</text>
<polygon fill="#fb8072" stroke="transparent" points="1739.5,-10 1739.5,-30 1759.5,-30 1759.5,-10 1739.5,-10"/>
<text text-anchor="start" x="1763.23" y="-15.4" font-family="Times-12" font-size="14.00"> &#160;Exports</text>
<g id="clust1" class="cluster">
<title>cluster_AppModule</title>
<polygon fill="none" stroke="black" stroke-dasharray="1,5" points="489,-146 489,-483 1128,-483 1128,-146 489,-146"/>
</g>
<g id="clust3" class="cluster">
<title>cluster_AppModule_imports</title>
<polygon fill="none" stroke="black" points="635,-154 635,-418 1120,-418 1120,-154 635,-154"/>
</g>
<g id="clust6" class="cluster">
<title>cluster_AppModule_providers</title>
<polygon fill="none" stroke="black" points="497,-366 497,-418 627,-418 627,-366 497,-366"/>
</g>
<g id="clust7" class="cluster">
<title>cluster_AuthModule</title>
<polygon fill="none" stroke="black" stroke-dasharray="1,5" points="8,-214 8,-282 481,-282 481,-214 8,-214"/>
</g>
<g id="clust10" class="cluster">
<title>cluster_AuthModule_exports</title>
<polygon fill="none" stroke="black" points="367,-222 367,-274 473,-274 473,-222 367,-222"/>
</g>
<g id="clust12" class="cluster">
<title>cluster_AuthModule_providers</title>
<polygon fill="none" stroke="black" points="16,-222 16,-274 359,-274 359,-222 16,-222"/>
</g>
<g id="clust13" class="cluster">
<title>cluster_cacheOperationsModule</title>
<polygon fill="none" stroke="black" stroke-dasharray="1,5" points="2915,-70 2915,-282 3155,-282 3155,-70 2915,-70"/>
</g>
<g id="clust16" class="cluster">
<title>cluster_cacheOperationsModule_exports</title>
<polygon fill="none" stroke="black" points="2950,-222 2950,-274 3120,-274 3120,-222 2950,-222"/>
</g>
<g id="clust18" class="cluster">
<title>cluster_cacheOperationsModule_providers</title>
<polygon fill="none" stroke="black" points="2923,-78 2923,-130 3147,-130 3147,-78 2923,-78"/>
</g>
<g id="clust19" class="cluster">
<title>cluster_ChangeStreamsModule</title>
<polygon fill="none" stroke="black" stroke-dasharray="1,5" points="2257,-146 2257,-274 2491,-274 2491,-146 2257,-146"/>
</g>
<g id="clust24" class="cluster">
<title>cluster_ChangeStreamsModule_providers</title>
<polygon fill="none" stroke="black" points="2265,-154 2265,-206 2483,-206 2483,-154 2265,-154"/>
</g>
<g id="clust37" class="cluster">
<title>cluster_MessageQueueModule</title>
<polygon fill="none" stroke="black" stroke-dasharray="1,5" points="2499,-146 2499,-358 2907,-358 2907,-146 2499,-146"/>
</g>
<g id="clust40" class="cluster">
<title>cluster_MessageQueueModule_exports</title>
<polygon fill="none" stroke="black" points="2514,-298 2514,-350 2676,-350 2676,-298 2514,-298"/>
</g>
<g id="clust42" class="cluster">
<title>cluster_MessageQueueModule_providers</title>
<polygon fill="none" stroke="black" points="2507,-154 2507,-206 2899,-206 2899,-154 2507,-154"/>
</g>
<g id="clust43" class="cluster">
<title>cluster_NotificationModule</title>
<polygon fill="none" stroke="black" stroke-dasharray="1,5" points="1136,-290 1136,-358 1880,-358 1880,-290 1136,-290"/>
</g>
<g id="clust46" class="cluster">
<title>cluster_NotificationModule_exports</title>
<polygon fill="none" stroke="black" points="1560,-298 1560,-350 1872,-350 1872,-298 1560,-298"/>
</g>
<g id="clust48" class="cluster">
<title>cluster_NotificationModule_providers</title>
<polygon fill="none" stroke="black" points="1144,-298 1144,-350 1552,-350 1552,-298 1144,-298"/>
</g>
<g id="clust49" class="cluster">
<title>cluster_PhoneConfirmationModule</title>
<polygon fill="none" stroke="black" stroke-dasharray="1,5" points="1888,-290 1888,-358 2348,-358 2348,-290 1888,-290"/>
</g>
<g id="clust52" class="cluster">
<title>cluster_PhoneConfirmationModule_exports</title>
<polygon fill="none" stroke="black" points="2152,-298 2152,-350 2340,-350 2340,-298 2152,-298"/>
</g>
<g id="clust54" class="cluster">
<title>cluster_PhoneConfirmationModule_providers</title>
<polygon fill="none" stroke="black" points="1896,-298 1896,-350 2144,-350 2144,-298 1896,-298"/>
</g>
<g id="clust55" class="cluster">
<title>cluster_RateModule</title>
<polygon fill="none" stroke="black" stroke-dasharray="1,5" points="1136,-214 1136,-282 1680,-282 1680,-214 1136,-214"/>
</g>
<g id="clust58" class="cluster">
<title>cluster_RateModule_exports</title>
<polygon fill="none" stroke="black" points="1444,-222 1444,-274 1672,-274 1672,-222 1444,-222"/>
</g>
<g id="clust60" class="cluster">
<title>cluster_RateModule_providers</title>
<polygon fill="none" stroke="black" points="1144,-222 1144,-274 1436,-274 1436,-222 1144,-222"/>
</g>
<g id="clust61" class="cluster">
<title>cluster_UploadFilesModule</title>
<polygon fill="none" stroke="black" stroke-dasharray="1,5" points="604,-70 604,-138 810,-138 810,-70 604,-70"/>
</g>
<g id="clust66" class="cluster">
<title>cluster_UploadFilesModule_providers</title>
<polygon fill="none" stroke="black" points="612,-78 612,-130 802,-130 802,-78 612,-78"/>
</g>
<g id="clust67" class="cluster">
<title>cluster_UsersModule</title>
<polygon fill="none" stroke="black" stroke-dasharray="1,5" points="1688,-214 1688,-282 2249,-282 2249,-214 1688,-214"/>
</g>
<g id="clust70" class="cluster">
<title>cluster_UsersModule_exports</title>
<polygon fill="none" stroke="black" points="2006,-222 2006,-274 2241,-274 2241,-222 2006,-222"/>
</g>
<g id="clust72" class="cluster">
<title>cluster_UsersModule_providers</title>
<polygon fill="none" stroke="black" points="1696,-222 1696,-274 1998,-274 1998,-222 1696,-222"/>
</g>
<!-- AuthModule -->
<g id="node1" class="node">
<title>AuthModule</title>
<polygon fill="#8dd3c7" stroke="black" points="731.55,-342 728.55,-346 707.55,-346 704.55,-342 644.45,-342 644.45,-306 731.55,-306 731.55,-342"/>
<text text-anchor="middle" x="688" y="-319.8" font-family="Times,serif" font-size="14.00">AuthModule</text>
</g>
<!-- ChatModule -->
<g id="node2" class="node">
<title>ChatModule</title>
<polygon fill="#8dd3c7" stroke="black" points="749.99,-410 746.99,-414 725.99,-414 722.99,-410 664.01,-410 664.01,-374 749.99,-374 749.99,-410"/>
<text text-anchor="middle" x="707" y="-387.8" font-family="Times,serif" font-size="14.00">ChatModule</text>
</g>
<!-- AuthModule&#45;&gt;ChatModule -->
<g id="edge20" class="edge">
<title>AuthModule&#45;&gt;ChatModule</title>
<path fill="none" stroke="black" d="M697.89,-342.22C697.89,-342.22 697.89,-363.73 697.89,-363.73"/>
<polygon fill="black" stroke="black" points="694.39,-363.73 697.89,-373.73 701.39,-363.73 694.39,-363.73"/>
</g>
<!-- AppModule -->
<g id="node9" class="node">
<title>AppModule</title>
<polygon fill="#8dd3c7" stroke="black" points="979.66,-475 976.66,-479 955.66,-479 952.66,-475 896.34,-475 896.34,-439 979.66,-439 979.66,-475"/>
<text text-anchor="middle" x="938" y="-452.8" font-family="Times,serif" font-size="14.00">AppModule</text>
</g>
<!-- AuthModule&#45;&gt;AppModule -->
<g id="edge1" class="edge">
<title>AuthModule&#45;&gt;AppModule</title>
<path fill="none" stroke="black" d="M731.76,-333C801.39,-333 929.63,-333 929.63,-333 929.63,-333 929.63,-428.97 929.63,-428.97"/>
<polygon fill="black" stroke="black" points="926.13,-428.97 929.63,-438.97 933.13,-428.97 926.13,-428.97"/>
</g>
<!-- AuthService  -->
<g id="node11" class="node">
<title>AuthService </title>
<polygon fill="#fb8072" stroke="black" points="464.98,-266 375.02,-266 375.02,-230 464.98,-230 464.98,-266"/>
<text text-anchor="middle" x="420" y="-243.8" font-family="Times,serif" font-size="14.00">AuthService </text>
</g>
<!-- AuthModule&#45;&gt;AuthService  -->
<g id="edge12" class="edge">
<title>AuthModule&#45;&gt;AuthService </title>
<path fill="none" stroke="black" stroke-dasharray="5,2" d="M660.02,-305.99C660.02,-283.51 660.02,-248 660.02,-248 660.02,-248 474.86,-248 474.86,-248"/>
<polygon fill="black" stroke="black" points="474.86,-244.5 464.86,-248 474.86,-251.5 474.86,-244.5"/>
</g>
<!-- ChatModule&#45;&gt;AppModule -->
<g id="edge2" class="edge">
<title>ChatModule&#45;&gt;AppModule</title>
<path fill="none" stroke="black" d="M750.16,-392C810.54,-392 912.9,-392 912.9,-392 912.9,-392 912.9,-428.89 912.9,-428.89"/>
<polygon fill="black" stroke="black" points="909.4,-428.89 912.9,-438.89 916.4,-428.89 909.4,-428.89"/>
</g>
<!-- DatabaseModule -->
<g id="node3" class="node">
<title>DatabaseModule</title>
<polygon fill="#8dd3c7" stroke="black" points="1112.35,-198 1109.35,-202 1088.35,-202 1085.35,-198 1001.65,-198 1001.65,-162 1112.35,-162 1112.35,-198"/>
<text text-anchor="middle" x="1057" y="-175.8" font-family="Times,serif" font-size="14.00">DatabaseModule</text>
</g>
<!-- DatabaseModule&#45;&gt;AppModule -->
<g id="edge3" class="edge">
<title>DatabaseModule&#45;&gt;AppModule</title>
<path fill="none" stroke="black" d="M1082.61,-198.17C1082.61,-259.8 1082.61,-457 1082.61,-457 1082.61,-457 989.83,-457 989.83,-457"/>
<polygon fill="black" stroke="black" points="989.83,-453.5 979.83,-457 989.83,-460.5 989.83,-453.5"/>
</g>
<!-- ChangeStreamsModule -->
<g id="node17" class="node">
<title>ChangeStreamsModule</title>
<polygon fill="#8dd3c7" stroke="black" points="2412.91,-266 2409.91,-270 2388.91,-270 2385.91,-266 2265.09,-266 2265.09,-230 2412.91,-230 2412.91,-266"/>
<text text-anchor="middle" x="2339" y="-243.8" font-family="Times,serif" font-size="14.00">ChangeStreamsModule</text>
</g>
<!-- DatabaseModule&#45;&gt;ChangeStreamsModule -->
<g id="edge17" class="edge">
<title>DatabaseModule&#45;&gt;ChangeStreamsModule</title>
<path fill="none" stroke="black" d="M1112.7,-180C1350.77,-180 2270.7,-180 2270.7,-180 2270.7,-180 2270.7,-219.78 2270.7,-219.78"/>
<polygon fill="black" stroke="black" points="2267.2,-219.78 2270.7,-229.78 2274.2,-219.78 2267.2,-219.78"/>
</g>
<!-- MessageQueueModule -->
<g id="node20" class="node">
<title>MessageQueueModule</title>
<polygon fill="#8dd3c7" stroke="black" points="2667.56,-266 2664.56,-270 2643.56,-270 2640.56,-266 2522.44,-266 2522.44,-230 2667.56,-230 2667.56,-266"/>
<text text-anchor="middle" x="2595" y="-243.8" font-family="Times,serif" font-size="14.00">MessageQueueModule</text>
</g>
<!-- DatabaseModule&#45;&gt;MessageQueueModule -->
<g id="edge23" class="edge">
<title>DatabaseModule&#45;&gt;MessageQueueModule</title>
<path fill="none" stroke="black" d="M1052.8,-198.08C1052.8,-199.85 1052.8,-201 1052.8,-201 1052.8,-201 2570.82,-201 2570.82,-201 2570.82,-201 2570.82,-219.96 2570.82,-219.96"/>
<polygon fill="black" stroke="black" points="2567.32,-219.96 2570.82,-229.96 2574.32,-219.96 2567.32,-219.96"/>
</g>
<!-- NotificationModule -->
<g id="node4" class="node">
<title>NotificationModule</title>
<polygon fill="#8dd3c7" stroke="black" points="834.7,-266 831.7,-270 810.7,-270 807.7,-266 707.3,-266 707.3,-230 834.7,-230 834.7,-266"/>
<text text-anchor="middle" x="771" y="-243.8" font-family="Times,serif" font-size="14.00">NotificationModule</text>
</g>
<!-- NotificationModule&#45;&gt;AppModule -->
<g id="edge4" class="edge">
<title>NotificationModule&#45;&gt;AppModule</title>
<path fill="none" stroke="black" d="M806.4,-266.16C806.4,-317.67 806.4,-461 806.4,-461 806.4,-461 886,-461 886,-461"/>
<polygon fill="black" stroke="black" points="886,-464.5 896,-461 886,-457.5 886,-464.5"/>
</g>
<!-- NotificationRepository  -->
<g id="node23" class="node">
<title>NotificationRepository </title>
<polygon fill="#fb8072" stroke="black" points="1864.09,-342 1715.91,-342 1715.91,-306 1864.09,-306 1864.09,-342"/>
<text text-anchor="middle" x="1790" y="-319.8" font-family="Times,serif" font-size="14.00">NotificationRepository </text>
</g>
<!-- NotificationModule&#45;&gt;NotificationRepository  -->
<g id="edge26" class="edge">
<title>NotificationModule&#45;&gt;NotificationRepository </title>
<path fill="none" stroke="black" stroke-dasharray="5,2" d="M778.2,-266.42C778.2,-275.28 778.2,-284 778.2,-284 778.2,-284 1781.67,-284 1781.67,-284 1781.67,-284 1781.67,-295.87 1781.67,-295.87"/>
<polygon fill="black" stroke="black" points="1778.18,-295.87 1781.67,-305.87 1785.18,-295.87 1778.18,-295.87"/>
</g>
<!-- NotificationService  -->
<g id="node24" class="node">
<title>NotificationService </title>
<polygon fill="#fb8072" stroke="black" points="1697.63,-342 1568.37,-342 1568.37,-306 1697.63,-306 1697.63,-342"/>
<text text-anchor="middle" x="1633" y="-319.8" font-family="Times,serif" font-size="14.00">NotificationService </text>
</g>
<!-- NotificationModule&#45;&gt;NotificationService  -->
<g id="edge27" class="edge">
<title>NotificationModule&#45;&gt;NotificationService </title>
<path fill="none" stroke="black" stroke-dasharray="5,2" d="M764.1,-266.1C764.1,-277.09 764.1,-289 764.1,-289 764.1,-289 1572.43,-289 1572.43,-289 1572.43,-289 1572.43,-295.68 1572.43,-295.68"/>
<polygon fill="black" stroke="black" points="1568.93,-295.68 1572.43,-305.68 1575.93,-295.68 1568.93,-295.68"/>
</g>
<!-- PhoneConfirmationModule -->
<g id="node5" class="node">
<title>PhoneConfirmationModule</title>
<polygon fill="#8dd3c7" stroke="black" points="1022.98,-266 1019.98,-270 998.98,-270 995.98,-266 853.02,-266 853.02,-230 1022.98,-230 1022.98,-266"/>
<text text-anchor="middle" x="938" y="-243.8" font-family="Times,serif" font-size="14.00">PhoneConfirmationModule</text>
</g>
<!-- PhoneConfirmationModule&#45;&gt;AuthModule -->
<g id="edge10" class="edge">
<title>PhoneConfirmationModule&#45;&gt;AuthModule</title>
<path fill="none" stroke="black" d="M874.59,-266.01C874.59,-288.49 874.59,-324 874.59,-324 874.59,-324 741.75,-324 741.75,-324"/>
<polygon fill="black" stroke="black" points="741.75,-320.5 731.75,-324 741.75,-327.5 741.75,-320.5"/>
</g>
<!-- PhoneConfirmationModule&#45;&gt;AppModule -->
<g id="edge5" class="edge">
<title>PhoneConfirmationModule&#45;&gt;AppModule</title>
<path fill="none" stroke="black" d="M963.1,-266.18C963.1,-266.18 963.1,-428.71 963.1,-428.71"/>
<polygon fill="black" stroke="black" points="959.6,-428.71 963.1,-438.71 966.6,-428.71 959.6,-428.71"/>
</g>
<!-- PhoneConfirmationService  -->
<g id="node27" class="node">
<title>PhoneConfirmationService </title>
<polygon fill="#fb8072" stroke="black" points="2331.91,-342 2160.09,-342 2160.09,-306 2331.91,-306 2331.91,-342"/>
<text text-anchor="middle" x="2246" y="-319.8" font-family="Times,serif" font-size="14.00">PhoneConfirmationService </text>
</g>
<!-- PhoneConfirmationModule&#45;&gt;PhoneConfirmationService  -->
<g id="edge31" class="edge">
<title>PhoneConfirmationModule&#45;&gt;PhoneConfirmationService </title>
<path fill="none" stroke="black" stroke-dasharray="5,2" d="M994.22,-266.19C994.22,-269.54 994.22,-272 994.22,-272 994.22,-272 2196.36,-272 2196.36,-272 2196.36,-272 2196.36,-295.81 2196.36,-295.81"/>
<polygon fill="black" stroke="black" points="2192.86,-295.81 2196.36,-305.81 2199.86,-295.81 2192.86,-295.81"/>
</g>
<!-- RateModule -->
<g id="node6" class="node">
<title>RateModule</title>
<polygon fill="#8dd3c7" stroke="black" points="874.71,-198 871.71,-202 850.71,-202 847.71,-198 789.29,-198 789.29,-162 874.71,-162 874.71,-198"/>
<text text-anchor="middle" x="832" y="-175.8" font-family="Times,serif" font-size="14.00">RateModule</text>
</g>
<!-- RateModule&#45;&gt;AppModule -->
<g id="edge6" class="edge">
<title>RateModule&#45;&gt;AppModule</title>
<path fill="none" stroke="black" d="M840.74,-198.4C840.74,-259.84 840.74,-454 840.74,-454 840.74,-454 886.19,-454 886.19,-454"/>
<polygon fill="black" stroke="black" points="886.19,-457.5 896.19,-454 886.19,-450.5 886.19,-457.5"/>
</g>
<!-- RateRepository  -->
<g id="node29" class="node">
<title>RateRepository </title>
<polygon fill="#fb8072" stroke="black" points="1558.09,-266 1451.91,-266 1451.91,-230 1558.09,-230 1558.09,-266"/>
<text text-anchor="middle" x="1505" y="-243.8" font-family="Times,serif" font-size="14.00">RateRepository </text>
</g>
<!-- RateModule&#45;&gt;RateRepository  -->
<g id="edge33" class="edge">
<title>RateModule&#45;&gt;RateRepository </title>
<path fill="none" stroke="black" stroke-dasharray="5,2" d="M857.33,-198.07C857.33,-207.46 857.33,-217 857.33,-217 857.33,-217 1505,-217 1505,-217 1505,-217 1505,-219.97 1505,-219.97"/>
<polygon fill="black" stroke="black" points="1501.5,-219.97 1505,-229.97 1508.5,-219.97 1501.5,-219.97"/>
</g>
<!-- RateService  -->
<g id="node30" class="node">
<title>RateService </title>
<polygon fill="#fb8072" stroke="black" points="1663.63,-266 1576.37,-266 1576.37,-230 1663.63,-230 1663.63,-266"/>
<text text-anchor="middle" x="1620" y="-243.8" font-family="Times,serif" font-size="14.00">RateService </text>
</g>
<!-- RateModule&#45;&gt;RateService  -->
<g id="edge34" class="edge">
<title>RateModule&#45;&gt;RateService </title>
<path fill="none" stroke="black" stroke-dasharray="5,2" d="M861.65,-198.19C861.65,-206.28 861.65,-214 861.65,-214 861.65,-214 1620,-214 1620,-214 1620,-214 1620,-219.81 1620,-219.81"/>
<polygon fill="black" stroke="black" points="1616.5,-219.81 1620,-229.81 1623.5,-219.81 1616.5,-219.81"/>
</g>
<!-- UploadFilesModule -->
<g id="node7" class="node">
<title>UploadFilesModule</title>
<polygon fill="#8dd3c7" stroke="black" points="770.98,-198 767.98,-202 746.98,-202 743.98,-198 643.02,-198 643.02,-162 770.98,-162 770.98,-198"/>
<text text-anchor="middle" x="707" y="-175.8" font-family="Times,serif" font-size="14.00">UploadFilesModule</text>
</g>
<!-- UploadFilesModule&#45;&gt;AppModule -->
<g id="edge7" class="edge">
<title>UploadFilesModule&#45;&gt;AppModule</title>
<path fill="none" stroke="black" d="M675.81,-198.11C675.81,-231.87 675.81,-301 675.81,-301 675.81,-301 946.37,-301 946.37,-301 946.37,-301 946.37,-428.8 946.37,-428.8"/>
<polygon fill="black" stroke="black" points="942.87,-428.8 946.37,-438.8 949.87,-428.8 942.87,-428.8"/>
</g>
<!-- UsersModule -->
<g id="node8" class="node">
<title>UsersModule</title>
<polygon fill="#8dd3c7" stroke="black" points="983.92,-198 980.92,-202 959.92,-202 956.92,-198 892.08,-198 892.08,-162 983.92,-162 983.92,-198"/>
<text text-anchor="middle" x="938" y="-175.8" font-family="Times,serif" font-size="14.00">UsersModule</text>
</g>
<!-- UsersModule&#45;&gt;AuthModule -->
<g id="edge11" class="edge">
<title>UsersModule&#45;&gt;AuthModule</title>
<path fill="none" stroke="black" d="M901.43,-198.15C901.43,-210.27 901.43,-224 901.43,-224 901.43,-224 691.61,-224 691.61,-224 691.61,-224 691.61,-295.66 691.61,-295.66"/>
<polygon fill="black" stroke="black" points="688.11,-295.66 691.61,-305.66 695.11,-295.66 688.11,-295.66"/>
</g>
<!-- UsersModule&#45;&gt;NotificationModule -->
<g id="edge25" class="edge">
<title>UsersModule&#45;&gt;NotificationModule</title>
<path fill="none" stroke="black" d="M910.57,-198.18C910.57,-211.04 910.57,-226 910.57,-226 910.57,-226 812,-226 812,-226 812,-226 812,-226.38 812,-226.38"/>
<polygon fill="black" stroke="black" points="808.5,-219.83 812,-229.83 815.5,-219.83 808.5,-219.83"/>
</g>
<!-- UsersModule&#45;&gt;PhoneConfirmationModule -->
<g id="edge30" class="edge">
<title>UsersModule&#45;&gt;PhoneConfirmationModule</title>
<path fill="none" stroke="black" d="M928.86,-198.22C928.86,-198.22 928.86,-219.73 928.86,-219.73"/>
<polygon fill="black" stroke="black" points="925.36,-219.73 928.86,-229.73 932.36,-219.73 925.36,-219.73"/>
</g>
<!-- UsersModule&#45;&gt;AppModule -->
<g id="edge8" class="edge">
<title>UsersModule&#45;&gt;AppModule</title>
<path fill="none" stroke="black" d="M919.72,-198.15C919.72,-211.74 919.72,-228 919.72,-228 919.72,-228 846.87,-228 846.87,-228 846.87,-228 846.87,-447 846.87,-447 846.87,-447 886.17,-447 886.17,-447"/>
<polygon fill="black" stroke="black" points="886.17,-450.5 896.17,-447 886.17,-443.5 886.17,-450.5"/>
</g>
<!-- UsersModule&#45;&gt;ChangeStreamsModule -->
<g id="edge18" class="edge">
<title>UsersModule&#45;&gt;ChangeStreamsModule</title>
<path fill="none" stroke="black" d="M956.28,-198.12C956.28,-200.97 956.28,-203 956.28,-203 956.28,-203 2268,-203 2268,-203 2268,-203 2268,-219.96 2268,-219.96"/>
<polygon fill="black" stroke="black" points="2264.5,-219.96 2268,-229.96 2271.5,-219.96 2264.5,-219.96"/>
</g>
<!-- UserRepository  -->
<g id="node34" class="node">
<title>UserRepository </title>
<polygon fill="#fb8072" stroke="black" points="2121.86,-266 2014.14,-266 2014.14,-230 2121.86,-230 2121.86,-266"/>
<text text-anchor="middle" x="2068" y="-243.8" font-family="Times,serif" font-size="14.00">UserRepository </text>
</g>
<!-- UsersModule&#45;&gt;UserRepository  -->
<g id="edge38" class="edge">
<title>UsersModule&#45;&gt;UserRepository </title>
<path fill="none" stroke="black" stroke-dasharray="5,2" d="M938,-198.21C938,-203.55 938,-208 938,-208 938,-208 2068,-208 2068,-208 2068,-208 2068,-219.87 2068,-219.87"/>
<polygon fill="black" stroke="black" points="2064.5,-219.87 2068,-229.87 2071.5,-219.87 2064.5,-219.87"/>
</g>
<!-- UsersService  -->
<g id="node35" class="node">
<title>UsersService </title>
<polygon fill="#fb8072" stroke="black" points="2232.85,-266 2139.15,-266 2139.15,-230 2232.85,-230 2232.85,-266"/>
<text text-anchor="middle" x="2186" y="-243.8" font-family="Times,serif" font-size="14.00">UsersService </text>
</g>
<!-- UsersModule&#45;&gt;UsersService  -->
<g id="edge39" class="edge">
<title>UsersModule&#45;&gt;UsersService </title>
<path fill="none" stroke="black" stroke-dasharray="5,2" d="M947.14,-198.17C947.14,-202.05 947.14,-205 947.14,-205 947.14,-205 2186,-205 2186,-205 2186,-205 2186,-219.51 2186,-219.51"/>
<polygon fill="black" stroke="black" points="2182.5,-219.51 2186,-229.51 2189.5,-219.51 2182.5,-219.51"/>
</g>
<!-- AppService -->
<g id="node10" class="node">
<title>AppService</title>
<ellipse fill="#fdb462" stroke="black" cx="562" cy="-392" rx="56.74" ry="18"/>
<text text-anchor="middle" x="562" y="-387.8" font-family="Times,serif" font-size="14.00">AppService</text>
</g>
<!-- AppService&#45;&gt;AppModule -->
<g id="edge9" class="edge">
<title>AppService&#45;&gt;AppModule</title>
<path fill="none" stroke="black" d="M562,-410.01C562,-432.49 562,-468 562,-468 562,-468 886.32,-468 886.32,-468"/>
<polygon fill="black" stroke="black" points="886.32,-471.5 896.32,-468 886.32,-464.5 886.32,-471.5"/>
</g>
<!-- AuthService -->
<g id="node12" class="node">
<title>AuthService</title>
<ellipse fill="#fdb462" stroke="black" cx="83" cy="-248" rx="59.11" ry="18"/>
<text text-anchor="middle" x="83" y="-243.8" font-family="Times,serif" font-size="14.00">AuthService</text>
</g>
<!-- AuthService&#45;&gt;AuthModule -->
<g id="edge13" class="edge">
<title>AuthService&#45;&gt;AuthModule</title>
<path fill="none" stroke="black" d="M83,-266.2C83,-290.36 83,-330 83,-330 83,-330 634,-330 634,-330"/>
<polygon fill="black" stroke="black" points="634,-333.5 644,-330 634,-326.5 634,-333.5"/>
</g>
<!-- GoogleOauthStrategy -->
<g id="node13" class="node">
<title>GoogleOauthStrategy</title>
<ellipse fill="#fdb462" stroke="black" cx="256" cy="-248" rx="95.49" ry="18"/>
<text text-anchor="middle" x="256" y="-243.8" font-family="Times,serif" font-size="14.00">GoogleOauthStrategy</text>
</g>
<!-- GoogleOauthStrategy&#45;&gt;AuthModule -->
<g id="edge14" class="edge">
<title>GoogleOauthStrategy&#45;&gt;AuthModule</title>
<path fill="none" stroke="black" d="M256,-266.03C256,-286.77 256,-318 256,-318 256,-318 634.2,-318 634.2,-318"/>
<polygon fill="black" stroke="black" points="634.2,-321.5 644.2,-318 634.2,-314.5 634.2,-321.5"/>
</g>
<!-- cacheOperationsService  -->
<g id="node14" class="node">
<title>cacheOperationsService </title>
<polygon fill="#fb8072" stroke="black" points="3112.26,-266 2957.74,-266 2957.74,-230 3112.26,-230 3112.26,-266"/>
<text text-anchor="middle" x="3035" y="-243.8" font-family="Times,serif" font-size="14.00">cacheOperationsService </text>
</g>
<!-- cacheOperationsModule -->
<g id="node15" class="node">
<title>cacheOperationsModule</title>
<polygon fill="#8dd3c7" stroke="black" points="3111.33,-198 3108.33,-202 3087.33,-202 3084.33,-198 2958.67,-198 2958.67,-162 3111.33,-162 3111.33,-198"/>
<text text-anchor="middle" x="3035" y="-175.8" font-family="Times,serif" font-size="14.00">cacheOperationsModule</text>
</g>
<!-- cacheOperationsModule&#45;&gt;cacheOperationsService  -->
<g id="edge15" class="edge">
<title>cacheOperationsModule&#45;&gt;cacheOperationsService </title>
<path fill="none" stroke="black" stroke-dasharray="5,2" d="M3035,-198.22C3035,-198.22 3035,-219.73 3035,-219.73"/>
<polygon fill="black" stroke="black" points="3031.5,-219.73 3035,-229.73 3038.5,-219.73 3031.5,-219.73"/>
</g>
<!-- cacheOperationsService -->
<g id="node16" class="node">
<title>cacheOperationsService</title>
<ellipse fill="#fdb462" stroke="black" cx="3035" cy="-104" rx="104.17" ry="18"/>
<text text-anchor="middle" x="3035" y="-99.8" font-family="Times,serif" font-size="14.00">cacheOperationsService</text>
</g>
<!-- cacheOperationsService&#45;&gt;cacheOperationsModule -->
<g id="edge16" class="edge">
<title>cacheOperationsService&#45;&gt;cacheOperationsModule</title>
<path fill="none" stroke="black" d="M3035,-122.01C3035,-122.01 3035,-151.85 3035,-151.85"/>
<polygon fill="black" stroke="black" points="3031.5,-151.85 3035,-161.85 3038.5,-151.85 3031.5,-151.85"/>
</g>
<!-- ChangeStreamsService -->
<g id="node18" class="node">
<title>ChangeStreamsService</title>
<ellipse fill="#fdb462" stroke="black" cx="2374" cy="-180" rx="100.7" ry="18"/>
<text text-anchor="middle" x="2374" y="-175.8" font-family="Times,serif" font-size="14.00">ChangeStreamsService</text>
</g>
<!-- ChangeStreamsService&#45;&gt;ChangeStreamsModule -->
<g id="edge19" class="edge">
<title>ChangeStreamsService&#45;&gt;ChangeStreamsModule</title>
<path fill="none" stroke="black" d="M2343.05,-197.16C2343.05,-197.16 2343.05,-219.65 2343.05,-219.65"/>
<polygon fill="black" stroke="black" points="2339.55,-219.65 2343.05,-229.65 2346.55,-219.65 2339.55,-219.65"/>
</g>
<!-- MessageQueueService  -->
<g id="node19" class="node">
<title>MessageQueueService </title>
<polygon fill="#fb8072" stroke="black" points="2668.49,-342 2521.51,-342 2521.51,-306 2668.49,-306 2668.49,-342"/>
<text text-anchor="middle" x="2595" y="-319.8" font-family="Times,serif" font-size="14.00">MessageQueueService </text>
</g>
<!-- MessageQueueModule&#45;&gt;MessageQueueService  -->
<g id="edge21" class="edge">
<title>MessageQueueModule&#45;&gt;MessageQueueService </title>
<path fill="none" stroke="black" stroke-dasharray="5,2" d="M2595,-266.01C2595,-266.01 2595,-295.85 2595,-295.85"/>
<polygon fill="black" stroke="black" points="2591.5,-295.85 2595,-305.85 2598.5,-295.85 2591.5,-295.85"/>
</g>
<!-- MessageQueueService -->
<g id="node21" class="node">
<title>MessageQueueService</title>
<ellipse fill="#fdb462" stroke="black" cx="2792" cy="-180" rx="98.95" ry="18"/>
<text text-anchor="middle" x="2792" y="-175.8" font-family="Times,serif" font-size="14.00">MessageQueueService</text>
</g>
<!-- MessageQueueService&#45;&gt;MessageQueueModule -->
<g id="edge22" class="edge">
<title>MessageQueueService&#45;&gt;MessageQueueModule</title>
<path fill="none" stroke="black" d="M2792,-198.22C2792,-218.37 2792,-248 2792,-248 2792,-248 2677.8,-248 2677.8,-248"/>
<polygon fill="black" stroke="black" points="2677.8,-244.5 2667.8,-248 2677.8,-251.5 2677.8,-244.5"/>
</g>
<!-- ConsumerService -->
<g id="node22" class="node">
<title>ConsumerService</title>
<ellipse fill="#fdb462" stroke="black" cx="2595" cy="-180" rx="79.87" ry="18"/>
<text text-anchor="middle" x="2595" y="-175.8" font-family="Times,serif" font-size="14.00">ConsumerService</text>
</g>
<!-- ConsumerService&#45;&gt;MessageQueueModule -->
<g id="edge24" class="edge">
<title>ConsumerService&#45;&gt;MessageQueueModule</title>
<path fill="none" stroke="black" d="M2619.18,-197.16C2619.18,-197.16 2619.18,-219.65 2619.18,-219.65"/>
<polygon fill="black" stroke="black" points="2615.68,-219.65 2619.18,-229.65 2622.68,-219.65 2615.68,-219.65"/>
</g>
<!-- NotificationRepository -->
<g id="node25" class="node">
<title>NotificationRepository</title>
<ellipse fill="#fdb462" stroke="black" cx="1444" cy="-324" rx="100.16" ry="18"/>
<text text-anchor="middle" x="1444" y="-319.8" font-family="Times,serif" font-size="14.00">NotificationRepository</text>
</g>
<!-- NotificationRepository&#45;&gt;NotificationModule -->
<g id="edge28" class="edge">
<title>NotificationRepository&#45;&gt;NotificationModule</title>
<path fill="none" stroke="black" d="M1385.81,-309.16C1385.81,-302.03 1385.81,-295 1385.81,-295 1385.81,-295 792.3,-295 792.3,-295 792.3,-295 792.3,-276.04 792.3,-276.04"/>
<polygon fill="black" stroke="black" points="795.8,-276.04 792.3,-266.04 788.8,-276.04 795.8,-276.04"/>
</g>
<!-- NotificationService -->
<g id="node26" class="node">
<title>NotificationService</title>
<ellipse fill="#fdb462" stroke="black" cx="1239" cy="-324" rx="86.81" ry="18"/>
<text text-anchor="middle" x="1239" y="-319.8" font-family="Times,serif" font-size="14.00">NotificationService</text>
</g>
<!-- NotificationService&#45;&gt;NotificationModule -->
<g id="edge29" class="edge">
<title>NotificationService&#45;&gt;NotificationModule</title>
<path fill="none" stroke="black" d="M1163.7,-315C1043.21,-315 820.5,-315 820.5,-315 820.5,-315 820.5,-276.31 820.5,-276.31"/>
<polygon fill="black" stroke="black" points="824,-276.31 820.5,-266.31 817,-276.31 824,-276.31"/>
</g>
<!-- PhoneConfirmationService -->
<g id="node28" class="node">
<title>PhoneConfirmationService</title>
<ellipse fill="#fdb462" stroke="black" cx="2020" cy="-324" rx="116.33" ry="18"/>
<text text-anchor="middle" x="2020" y="-319.8" font-family="Times,serif" font-size="14.00">PhoneConfirmationService</text>
</g>
<!-- PhoneConfirmationService&#45;&gt;PhoneConfirmationModule -->
<g id="edge32" class="edge">
<title>PhoneConfirmationService&#45;&gt;PhoneConfirmationModule</title>
<path fill="none" stroke="black" d="M1946.91,-309.95C1946.91,-296.42 1946.91,-278 1946.91,-278 1946.91,-278 1008.6,-278 1008.6,-278 1008.6,-278 1008.6,-276.14 1008.6,-276.14"/>
<polygon fill="black" stroke="black" points="1012.1,-276.14 1008.6,-266.14 1005.1,-276.14 1012.1,-276.14"/>
</g>
<!-- RateRepository -->
<g id="node31" class="node">
<title>RateRepository</title>
<ellipse fill="#fdb462" stroke="black" cx="1223" cy="-248" rx="71.22" ry="18"/>
<text text-anchor="middle" x="1223" y="-243.8" font-family="Times,serif" font-size="14.00">RateRepository</text>
</g>
<!-- RateRepository&#45;&gt;RateModule -->
<g id="edge35" class="edge">
<title>RateRepository&#45;&gt;RateModule</title>
<path fill="none" stroke="black" d="M1223,-229.84C1223,-224.96 1223,-221 1223,-221 1223,-221 865.97,-221 865.97,-221 865.97,-221 865.97,-208.1 865.97,-208.1"/>
<polygon fill="black" stroke="black" points="869.47,-208.1 865.97,-198.1 862.47,-208.1 869.47,-208.1"/>
</g>
<!-- RateService -->
<g id="node32" class="node">
<title>RateService</title>
<ellipse fill="#fdb462" stroke="black" cx="1370" cy="-248" rx="57.88" ry="18"/>
<text text-anchor="middle" x="1370" y="-243.8" font-family="Times,serif" font-size="14.00">RateService</text>
</g>
<!-- RateService&#45;&gt;RateModule -->
<g id="edge36" class="edge">
<title>RateService&#45;&gt;RateModule</title>
<path fill="none" stroke="black" d="M1370,-229.8C1370,-223.97 1370,-219 1370,-219 1370,-219 870.28,-219 870.28,-219 870.28,-219 870.28,-208.13 870.28,-208.13"/>
<polygon fill="black" stroke="black" points="873.78,-208.13 870.28,-198.13 866.78,-208.13 873.78,-208.13"/>
</g>
<!-- UploadFilesService -->
<g id="node33" class="node">
<title>UploadFilesService</title>
<ellipse fill="#fdb462" stroke="black" cx="707" cy="-104" rx="87.39" ry="18"/>
<text text-anchor="middle" x="707" y="-99.8" font-family="Times,serif" font-size="14.00">UploadFilesService</text>
</g>
<!-- UploadFilesService&#45;&gt;UploadFilesModule -->
<g id="edge37" class="edge">
<title>UploadFilesService&#45;&gt;UploadFilesModule</title>
<path fill="none" stroke="black" d="M707,-122.01C707,-122.01 707,-151.85 707,-151.85"/>
<polygon fill="black" stroke="black" points="703.5,-151.85 707,-161.85 710.5,-151.85 703.5,-151.85"/>
</g>
<!-- UserRepository -->
<g id="node36" class="node">
<title>UserRepository</title>
<ellipse fill="#fdb462" stroke="black" cx="1776" cy="-248" rx="71.79" ry="18"/>
<text text-anchor="middle" x="1776" y="-243.8" font-family="Times,serif" font-size="14.00">UserRepository</text>
</g>
<!-- UserRepository&#45;&gt;UsersModule -->
<g id="edge40" class="edge">
<title>UserRepository&#45;&gt;UsersModule</title>
<path fill="none" stroke="black" d="M1776,-230C1776,-221 1776,-212 1776,-212 1776,-212 965.43,-212 965.43,-212 965.43,-212 965.43,-208.24 965.43,-208.24"/>
<polygon fill="black" stroke="black" points="968.93,-208.24 965.43,-198.24 961.93,-208.24 968.93,-208.24"/>
</g>
<!-- UsersService -->
<g id="node37" class="node">
<title>UsersService</title>
<ellipse fill="#fdb462" stroke="black" cx="1928" cy="-248" rx="61.95" ry="18"/>
<text text-anchor="middle" x="1928" y="-243.8" font-family="Times,serif" font-size="14.00">UsersService</text>
</g>
<!-- UsersService&#45;&gt;UsersModule -->
<g id="edge41" class="edge">
<title>UsersService&#45;&gt;UsersModule</title>
<path fill="none" stroke="black" d="M1928,-229.89C1928,-220.1 1928,-210 1928,-210 1928,-210 974.57,-210 974.57,-210 974.57,-210 974.57,-208.14 974.57,-208.14"/>
<polygon fill="black" stroke="black" points="978.07,-208.14 974.57,-198.14 971.07,-208.14 978.07,-208.14"/>
</g>
</g>
</svg>
